<svg xmlns="http://www.w3.org/2000/svg" width="244.75" height="320" viewBox="0 0 979 1280" preserveAspectRatio="xMidYMid meet">
    <g transform="translate(0,1280) scale(0.1,-0.1)" stroke="none">
        <path d="M5366 12084 c-245 -32 -524 -111 -780 -220 -567 -241 -1199 -732
-1710 -1329 -314 -367 -499 -638 -848 -1240 -362 -624 -571 -1136 -887 -2170
-151 -494 -195 -684 -281 -1205 -100 -600 -127 -857 -135 -1255 -19 -1030 200
-1945 633 -2640 322 -519 720 -900 1182 -1134 616 -312 1357 -352 2054 -111
639 221 1253 702 1815 1420 668 855 1162 1869 1485 3047 207 758 331 1513 376
2303 12 205 15 860 5 1046 -47 872 -210 1593 -482 2139 -146 292 -299 508
-509 719 -338 340 -738 543 -1224 621 -146 24 -546 29 -694 9z m621 -615 c313
-55 571 -259 771 -609 229 -400 350 -882 393 -1560 11 -172 7 -956 -6 -1080
-2 -25 -9 -121 -15 -215 -109 -1685 -565 -3442 -1264 -4870 -153 -313 -264
-509 -421 -745 -166 -248 -269 -375 -454 -561 -390 -390 -761 -569 -1176 -569
-417 0 -757 173 -1013 516 -422 565 -562 1414 -456 2759 66 837 216 1683 445
2499 382 1364 766 2312 1251 3086 237 378 473 668 735 903 332 297 593 429
908 461 58 6 235 -3 302 -15z"/>
    </g>
</svg>
