<svg xmlns="http://www.w3.org/2000/svg" width="244.75" height="320" viewBox="0 0 979 1280" preserveAspectRatio="xMidYMid meet">
    <g transform="translate(0,1280) scale(0.1,-0.1)" stroke="none">
        <path d="M6600 11899 c-460 -55 -481 -58 -549 -87 -188 -79 -390 -278 -616
-608 -49 -71 -123 -176 -165 -234 -42 -58 -119 -170 -171 -250 -52 -80 -138
-195 -189 -255 -52 -61 -132 -155 -179 -210 -285 -333 -565 -613 -1363 -1361
-383 -359 -699 -662 -703 -673 -15 -48 -32 -188 -25 -207 13 -32 158 -221 176
-228 8 -3 52 -6 96 -6 l81 0 151 111 c333 245 688 535 996 810 91 81 359 342
596 581 362 363 430 427 422 398 -5 -19 -27 -89 -48 -155 -22 -66 -158 -505
-304 -975 -145 -470 -433 -1399 -639 -2065 -1829 -5899 -1670 -5383 -1669
-5416 1 -35 60 -190 81 -210 23 -23 251 -72 304 -64 23 3 200 16 392 30 l350
25 124 44 c68 24 134 52 145 63 12 12 49 85 84 162 67 152 6 -50 1086 3651
178 613 597 2051 931 3195 334 1144 690 2366 791 2715 102 349 202 691 224
760 61 200 66 228 45 291 -30 92 -56 147 -73 154 -27 10 -174 35 -202 34 -14
-1 -95 -10 -180 -20z"/>
    </g>
</svg>
