<svg xmlns="http://www.w3.org/2000/svg" width="244.75" height="320" viewBox="0 0 979 1280" preserveAspectRatio="xMidYMid meet">
    <g transform="translate(0,1280) scale(0.1,-0.1)" stroke="none">
        <path d="M5970 12270 c-920 -66 -1824 -633 -2540 -1595 -155 -208 -361 -532
-376 -592 -6 -21 16 -136 36 -187 6 -17 51 -53 131 -106 l121 -80 78 0 c44 0
90 5 102 11 13 5 60 63 103 127 348 510 695 888 1075 1172 263 196 518 319
758 367 118 23 330 23 437 -1 114 -25 268 -103 344 -174 101 -94 197 -278 238
-455 26 -115 23 -415 -6 -581 -137 -779 -698 -1489 -1711 -2163 -409 -273
-978 -583 -1506 -822 -89 -40 -171 -79 -182 -87 -11 -7 -34 -52 -50 -98 -30
-82 -31 -84 -16 -142 25 -97 64 -212 77 -222 7 -6 61 -29 121 -51 l108 -42 52
15 c83 24 727 193 797 209 191 44 400 62 569 48 256 -21 425 -67 619 -166 277
-141 491 -360 631 -643 145 -290 183 -574 139 -1017 -79 -797 -498 -1727
-1092 -2421 -329 -384 -620 -620 -1007 -814 -189 -95 -466 -193 -649 -230
-141 -28 -427 -43 -694 -37 -250 6 -363 19 -582 68 -331 73 -445 106 -676 195
l-47 18 -73 -28 c-58 -22 -88 -42 -137 -90 -34 -33 -74 -78 -88 -98 -25 -36
-25 -38 -13 -115 19 -126 22 -130 146 -200 266 -151 477 -231 843 -318 372
-88 618 -117 1010 -117 478 -1 903 67 1387 223 502 161 1098 493 1523 847 118
98 377 350 524 510 733 796 1140 1573 1231 2347 17 148 20 456 5 590 -59 530
-258 946 -627 1306 -281 275 -649 496 -1070 642 -229 80 -614 167 -811 184
-40 3 -75 9 -77 13 -3 4 21 18 53 31 115 46 512 233 687 324 617 319 1038 608
1389 953 395 388 625 789 720 1252 61 299 62 611 4 895 -165 813 -829 1313
-1788 1348 -69 3 -177 1 -240 -3z"/>
    </g>
</svg>
