<svg xmlns="http://www.w3.org/2000/svg" width="244.75" height="320" viewBox="0 0 979 1280" preserveAspectRatio="xMidYMid meet">
    <g transform="translate(0,1280) scale(0.1,-0.1)" stroke="none">
        <path d="M7030 12128 c-74 -16 -349 -74 -610 -128 -530 -111 -557 -120 -679
-224 -146 -125 -244 -270 -402 -596 -144 -296 -152 -311 -297 -570 -353 -628
-836 -1438 -1334 -2236 -547 -876 -1238 -1886 -2094 -3060 -116 -160 -223
-309 -238 -330 -26 -40 -66 -176 -66 -229 0 -52 47 -226 66 -246 13 -12 48
-23 111 -32 82 -12 316 -7 2244 49 1184 35 2155 62 2156 60 4 -3 37 120 -441
-1601 -229 -825 -428 -1531 -441 -1570 -38 -109 -49 -180 -49 -315 -1 -153 8
-178 74 -198 26 -8 96 -15 165 -15 119 -2 124 -1 595 106 l475 108 92 56 92
56 52 111 c50 107 67 170 444 1679 237 947 399 1575 409 1586 18 20 22 36 6
26 -5 -3 -10 3 -10 13 0 11 6 22 14 25 8 3 95 7 193 8 98 1 211 5 252 8 l73 6
49 55 c99 110 96 104 122 260 18 106 21 151 14 168 -6 12 -51 50 -101 85 l-91
62 -90 -2 c-95 -3 -252 8 -222 14 9 3 15 9 11 14 -3 5 -10 7 -15 4 -5 -4 -9
-3 -9 1 0 5 51 211 114 459 326 1281 466 1849 466 1885 0 61 -57 227 -83 244
-12 8 -63 31 -114 51 l-91 36 -342 -45 c-188 -25 -350 -46 -360 -46 -10 0 -76
-21 -146 -47 -103 -38 -134 -54 -165 -86 -51 -52 -85 -123 -115 -243 -14 -54
-81 -304 -149 -554 -68 -250 -191 -707 -275 -1015 -83 -308 -159 -587 -169
-620 -10 -33 -21 -72 -25 -86 l-6 -26 -197 -2 c-109 -1 -927 -15 -1818 -31
-891 -17 -1639 -30 -1662 -30 l-43 0 248 283 c1060 1209 2214 2580 2987 3547
757 947 1428 1860 1710 2330 135 226 190 351 202 461 5 47 0 73 -28 159 -23
72 -40 107 -56 117 -41 27 -202 83 -236 82 -17 -1 -93 -14 -167 -31z"/>
    </g>
</svg>
