<svg xmlns="http://www.w3.org/2000/svg" width="244.75" height="320" viewBox="0 0 979 1280" preserveAspectRatio="xMidYMid meet">
    <g transform="translate(0,1280) scale(0.1,-0.1)" stroke="none">
        <path d="M8760 11819 c-109 -24 -112 -25 -223 -109 l-94 -70 -244 30 c-481 59
-502 60 -882 60 -199 0 -546 7 -772 16 -476 18 -1216 20 -1525 4 -576 -29
-984 -95 -1150 -187 -196 -108 -424 -311 -550 -490 -136 -194 -393 -703 -542
-1073 -41 -104 -180 -592 -225 -795 -10 -46 10 -210 29 -233 23 -27 147 -82
186 -82 56 0 186 35 242 66 91 50 179 151 219 252 11 28 27 92 36 144 18 107
44 162 150 323 131 199 298 366 434 434 180 91 487 140 891 144 206 2 1251
-13 1260 -18 3 -1 136 -6 295 -9 160 -4 315 -9 345 -11 30 -2 188 -7 350 -11
162 -4 338 -9 390 -13 l95 -6 -36 -40 c-101 -112 -1314 -1619 -1960 -2435
-1604 -2024 -3015 -3899 -3966 -5270 -608 -877 -873 -1339 -873 -1525 0 -27
51 -140 73 -162 22 -21 218 -93 240 -88 12 3 267 30 567 60 l545 55 125 41
c122 40 126 42 185 103 73 76 123 158 295 481 253 476 966 1775 1143 2085 33
58 320 539 637 1070 588 982 664 1102 1462 2305 493 744 700 1043 1138 1645
324 446 1022 1444 1425 2040 76 113 166 246 200 295 107 157 322 490 344 533
17 34 21 59 21 142 0 97 -1 103 -31 146 -53 77 -127 161 -146 166 -10 3 -56
-3 -103 -13z"/>
    </g>
</svg>
