<svg xmlns="http://www.w3.org/2000/svg" width="235" height="320" viewBox="0 0 940 1280" preserveAspectRatio="xMidYMid meet">
    <g transform="translate(0,1280) scale(0.1,-0.1)" stroke="none">
        <path d="M5758 12435 c-535 -73 -1041 -320 -1600 -780 -169 -139 -522 -491
-662 -660 -603 -726 -1063 -1622 -1275 -2485 -151 -614 -192 -1263 -111 -1755
88 -529 335 -1008 693 -1340 374 -347 822 -495 1343 -444 435 42 749 195 1127
549 48 45 87 79 87 76 0 -16 -155 -355 -242 -529 -331 -662 -731 -1269 -1381
-2097 -350 -445 -727 -839 -1097 -1147 -193 -160 -1055 -832 -1127 -878 -1 -1
-5 -32 -8 -71 l-6 -69 118 -152 c65 -84 121 -152 125 -153 3 0 87 63 186 139
99 77 375 276 614 442 591 413 815 583 1188 905 1068 919 2143 2085 2807 3044
368 530 738 1219 966 1795 380 962 648 2004 708 2759 17 216 7 621 -21 801
-47 314 -149 643 -267 865 -301 565 -844 1004 -1413 1144 -225 54 -529 71
-752 41z m522 -491 c335 -77 549 -408 551 -851 0 -130 -5 -166 -81 -543 -33
-162 -93 -470 -135 -685 -79 -403 -114 -552 -216 -909 -231 -806 -472 -1444
-785 -2081 -116 -238 -231 -430 -360 -602 -112 -151 -381 -421 -529 -532 -326
-243 -675 -317 -919 -194 -123 61 -238 165 -358 323 -116 153 -174 278 -210
450 -17 83 -19 121 -15 300 11 425 104 856 353 1635 263 819 528 1466 867
2110 158 302 247 456 372 645 151 229 262 368 425 530 267 267 473 383 755
424 51 7 217 -4 285 -20z"/>
    </g>
</svg>
