<svg xmlns="http://www.w3.org/2000/svg" width="244.75" height="320" viewBox="0 0 979 1280" preserveAspectRatio="xMidYMid meet">
    <g transform="translate(0,1280) scale(0.1,-0.1)" stroke="none">
        <path d="M5625 12399 c-848 -69 -1581 -504 -2165 -1284 -449 -599 -724 -1334
-835 -2232 -18 -148 -20 -143 55 -253 65 -95 55 -92 247 -92 l168 0 48 53 c73
79 77 88 98 231 113 772 397 1437 839 1968 100 120 316 334 405 402 286 218
569 333 886 360 335 29 632 -47 826 -211 74 -63 109 -112 182 -258 114 -228
161 -516 140 -858 -49 -834 -447 -1820 -1282 -3180 -599 -976 -1347 -1951
-2629 -3428 l-93 -108 -195 -3 c-107 -2 -209 -8 -227 -14 -17 -5 -59 -32 -92
-59 -57 -45 -102 -110 -635 -923 -315 -481 -595 -908 -621 -948 -34 -54 -55
-102 -76 -178 -36 -129 -33 -137 70 -194 42 -24 122 -69 179 -102 130 -74 141
-79 174 -64 15 6 261 243 546 527 l520 517 289 -113 c158 -62 531 -208 828
-325 297 -116 644 -252 770 -302 426 -167 888 -311 1129 -353 341 -59 708 38
1067 281 332 224 729 621 1065 1067 178 236 525 776 611 952 l26 54 -17 84
c-21 97 -20 96 -160 201 -108 80 -124 82 -209 25 -49 -32 -77 -62 -132 -142
-658 -952 -1205 -1320 -1770 -1192 -142 32 -598 190 -1040 360 -304 117 -990
409 -1290 550 -55 26 -110 51 -123 56 -22 9 -12 21 165 207 103 108 308 325
454 482 2540 2722 3974 4621 4288 5678 61 205 76 308 75 512 -3 532 -161 997
-474 1390 -95 119 -304 320 -435 417 -451 336 -1034 492 -1650 442z"/>
    </g>
</svg>
