<svg xmlns="http://www.w3.org/2000/svg" width="235" height="320" viewBox="0 0 940 1280" preserveAspectRatio="xMidYMid meet">
    <g transform="translate(0,1280) scale(0.1,-0.1)" stroke="none">
        <path d="M5840 11694 c-529 -64 -1019 -271 -1450 -614 -129 -103 -365 -332
-472 -460 -413 -490 -618 -1027 -618 -1614 0 -240 24 -374 102 -566 120 -297
382 -585 790 -869 l107 -75 -157 -47 c-791 -240 -1209 -472 -1681 -934 -640
-626 -986 -1315 -1096 -2185 -23 -174 -31 -570 -16 -754 76 -934 522 -1648
1253 -2006 230 -113 483 -186 783 -226 182 -25 610 -25 785 -1 453 63 849 204
1250 445 276 165 500 341 736 576 608 609 1000 1414 1110 2281 26 198 26 623
1 790 -70 465 -254 882 -555 1255 -128 158 -422 442 -554 534 -12 9 -20 17
-17 19 2 2 65 23 139 46 463 148 808 345 1163 666 239 215 468 562 582 879
165 458 188 1033 61 1497 -146 533 -467 936 -930 1169 -207 104 -398 162 -649
195 -147 19 -505 19 -667 -1z m701 -531 c150 -52 287 -162 360 -287 16 -28 41
-87 56 -131 23 -71 27 -100 31 -253 2 -98 -1 -223 -8 -290 -31 -313 -128 -698
-270 -1072 -125 -329 -318 -736 -428 -900 -196 -292 -411 -457 -688 -527 -105
-27 -411 -24 -515 5 -227 62 -362 193 -421 409 -18 67 -21 106 -22 273 -1 279
31 514 116 845 103 408 338 1003 508 1288 164 276 358 471 571 574 169 82 275
104 479 99 131 -2 153 -5 231 -33z m-1428 -4043 c296 -24 490 -113 629 -288
219 -275 261 -635 152 -1287 -122 -730 -406 -1687 -689 -2325 -387 -873 -695
-1235 -1148 -1351 -259 -66 -568 -39 -779 67 -219 110 -400 332 -481 590 -56
178 -62 227 -62 529 1 297 12 426 61 720 101 611 321 1260 655 1935 476 962
884 1361 1444 1410 44 4 83 8 86 9 3 0 63 -4 132 -9z"/>
    </g>
</svg>
