<svg xmlns="http://www.w3.org/2000/svg" width="244.75" height="320" viewBox="0 0 979 1280" preserveAspectRatio="xMidYMid meet">
    <g transform="translate(0,1280) scale(0.1,-0.1)" stroke="none">
        <path d="M8015 12278 c-11 -6 -45 -34 -75 -61 -143 -131 -361 -234 -560 -267
-88 -14 -209 -17 -1835 -45 -775 -14 -1457 -30 -1515 -35 -156 -15 -256 -39
-309 -74 -56 -38 -121 -134 -161 -238 -17 -43 -156 -468 -309 -945 -154 -478
-424 -1318 -601 -1868 -177 -550 -404 -1256 -505 -1570 -168 -522 -184 -579
-194 -680 -10 -98 -9 -117 8 -175 26 -89 39 -115 71 -139 29 -21 157 -61 195
-61 53 0 456 252 828 517 458 327 780 473 1167 529 142 20 428 15 565 -10 263
-49 505 -172 696 -354 173 -164 326 -445 402 -737 133 -506 75 -1221 -148
-1850 -229 -646 -587 -1225 -1035 -1676 -617 -620 -1276 -985 -1995 -1103
-241 -40 -358 -43 -735 -20 l-265 16 -294 69 -295 69 -68 -32 c-81 -37 -100
-57 -157 -167 l-43 -82 21 -93 c24 -112 33 -136 57 -158 28 -25 128 -72 225
-106 173 -61 294 -81 691 -112 408 -33 494 -35 703 -20 413 30 805 109 1210
244 913 304 1650 750 2314 1401 197 193 354 367 485 535 520 668 820 1376 908
2145 16 141 16 560 -1 690 -69 560 -276 1015 -628 1385 -412 433 -949 675
-1618 730 -445 36 -960 -33 -1377 -184 -71 -25 -184 -66 -253 -91 -209 -76
-507 -221 -664 -324 -14 -9 -22 -11 -18 -4 6 9 3 11 -7 7 -9 -3 -14 -10 -11
-14 3 -5 2 -11 -3 -14 -20 -12 -6 42 69 269 43 132 265 816 493 1519 229 703
423 1287 432 1297 10 11 13 19 7 19 -6 0 -8 11 -5 25 l4 26 127 -8 c188 -12
1442 -8 1701 6 608 31 997 81 1347 171 681 176 1046 561 1183 1249 36 181 46
281 31 309 -7 13 -48 35 -115 61 -116 45 -113 45 -141 29z"/>
    </g>
</svg>
