<svg xmlns="http://www.w3.org/2000/svg" width="235" height="320" viewBox="0 0 940 1280" preserveAspectRatio="xMidYMid meet">
    <g transform="translate(0,1280) scale(0.1,-0.1)" stroke="none">
        <path d="M6990 12298 c-1398 -1062 -2402 -1937 -3141 -2738 -595 -646 -1180
-1475 -1639 -2325 -775 -1434 -1219 -3027 -1159 -4165 35 -673 226 -1196 616
-1680 330 -411 659 -625 1104 -722 89 -19 134 -22 319 -22 233 0 316 10 530
64 418 105 924 370 1365 713 312 243 681 604 916 898 687 855 1211 2180 1310
3309 18 200 15 559 -5 715 -56 433 -206 805 -451 1120 -130 167 -343 351 -532
459 -435 250 -1001 303 -1493 140 -256 -85 -506 -240 -772 -479 -39 -36 -73
-63 -75 -61 -10 9 283 606 445 906 432 804 825 1378 1331 1945 143 161 551
571 726 730 302 276 696 600 1044 860 l170 127 -119 177 -118 178 -58 11 c-31
7 -64 12 -73 11 -9 0 -117 -77 -241 -171z m-1657 -4663 c283 -30 529 -272 613
-602 87 -343 24 -854 -213 -1743 -338 -1267 -756 -2283 -1249 -3033 -176 -267
-293 -416 -473 -600 -229 -235 -423 -362 -656 -433 -79 -24 -107 -27 -230 -27
-126 -1 -148 2 -222 27 -193 63 -345 212 -426 416 -53 135 -62 205 -62 465 0
368 44 702 161 1230 216 973 595 2075 969 2815 237 468 432 756 690 1016 289
291 571 443 877 473 82 8 105 8 221 -4z"/>
    </g>
</svg>
